M48
;Layer_Color=9474304
;FILE_FORMAT=4:4
METRIC,LZ
;TYPE=PLATED
T1F00S00C0.3000
T2F00S00C1.1000
%
T01
X00021Y00104
X00043Y00102
X000361Y0011787
X000611
X00068Y00102
X00093
X000861Y0011787
X001111
X00118Y00102
X00144Y00097
X001361Y0011787
X001611
X001736Y0014287
X001486
X001236
X000986
X000736
X000486
X000236
X00007Y00143
Y00168
X00008Y00186
X00028Y00188
X00053
X000611Y0016787
X000861
X001111
X001361
X001611
X001736Y0019287
X001486
X001236
X0013Y0022
X001111Y0021787
X000861
X00073Y00207
Y00234
X00053Y00253
X000611Y0026787
X000861
X001111
X00122Y00273
X001236Y0024287
X001486
X00176Y00279
X000361Y0026787
X00028Y00253
X00009Y00255
X00007Y00278
X000361Y0016787
X00008Y00119
X001736Y0009287
X00166Y00084
X00183Y00063
X00191Y00039
X00195Y00017
X00213Y00007
X00238
X002361Y0001787
X002611
X00263Y00007
X00288
X00292Y00023
Y00048
X002736Y0004287
X002486
X002236
X002361Y0006787
X002611
X00297Y00067
X002986Y0009287
X003236
X00324Y00073
X00351Y00068
X00358Y00048
X003736Y0004287
X003986
X004236
X004486
X00479Y00046
X00476Y00023
X00463Y00008
X00438Y00007
X004361Y0001787
X004111
X00413Y00007
X00388
X003861Y0001787
X00358Y00023
X00363Y00007
X003861Y0006787
X004111
X004361
X004611
X00491Y00069
X004986Y0009287
X00511Y00088
X005111Y0011787
X005361
X00538Y00097
X00559Y00101
X00567Y00118
Y00143
X005486Y0014287
X005361Y0016787
X005111
X004986Y0019287
X005111Y0021787
X005236Y0024287
X005486
X00567Y00243
Y00218
Y00193
X005486Y0019287
X00567Y00168
X004986Y0014287
X004861Y0011787
X004611
X004361
X004111
X003861
X003611
X003361
X003111
X002861
X002611
X002361
X002111
X001861
X001986Y0014287
X002236
X002486
X002736
X002861Y0016787
X002611
X002361
X002111
X001861
X001986Y0019287
X002236
X002486
X002736
X00305Y00195
X00314Y0021
X00322Y00187
X00345Y00171
X003611Y0016787
X003861
X00378Y00187
X003861Y0021787
X003611
X00338Y0022
X00342Y00246
X00326Y00266
X00292Y00265
Y00272
X00263Y00278
Y00255
X002611Y0021787
X002861
X00307Y00242
X00358Y0027
X00385Y00246
X004486Y0024287
X004736
X00492Y00243
X004611Y0021787
X004361
X004486Y0019287
X004236
X004361Y0016787
X004611
X004486Y0014287
X004236
Y0009287
X004486
X004736
X003986
X003486
X00355Y00148
X003736Y0014287
X002486Y0009287
X002236
X001986
X002111Y0006787
Y0021787
X002361
X00228Y00248
X00195Y00249
X00196Y00264
X00188Y0026
X001861Y0021787
X00445Y00273
X00567Y00268
Y00293
X005486Y0029287
X00567Y00318
Y00343
X005486Y0034287
X005361Y0036787
X005111
X004861
X004611
X004361
X0042Y003675
X00423Y00343
X00431999Y00329999
X00432Y00303
X0042
X00379Y002995
X00393Y00337
X00403
X00396Y00354
X00392Y00405
X004111Y0041787
X00406Y00431
X00371Y00429
X00375Y00455
X00387Y00458
X00382Y00483
X00376Y00499
X00362Y00507
X00338
X00314
Y00492
Y00475
X00337Y0047
X003611Y0046787
X00346Y00452
X00345Y0044
Y00419
Y00396
X00356Y00397
X00343Y00385
X0032373Y003906
X00323Y00417
X00314Y00421
X00293
X0029Y00408
Y00401
X00279Y00399
X00256Y00409
X00268Y00421
X00243
X00218
X00193
X00199Y00402
X00231
Y00387
X001986Y0034287
X00192Y00307
X00188Y00298
X0025Y00306
X00242Y00314
Y00321
X00281Y00306
X00311999Y00295999
X00316Y00324
Y00333
X00307
Y00324
X00325
Y00333
Y00342
X00334
X00343
Y00333
Y00324
X00334
Y00333
Y00351
Y0036
X00343
Y00351
X00325
Y0036
X00316
Y00351
X00307
Y0036
Y00342
X00316
X0027Y003485
X00314Y00443
X00323Y00437
X003486Y0049287
X00431Y00416
X004236Y0039287
X004486
X004736
X004986
X005236
X005486
X00567Y00393
Y00368
X00556Y00409
X00533Y00412
X00508
X00483
X00458
X00498Y00351
Y00337
X00492Y00311
X00146Y00305
X0013Y0033
X001236Y0034287
X000986
X00078Y00348
Y00357
X000861Y0036787
X00071Y00377
X000736Y0039287
X00096Y00393
X00087Y00407
X00093Y00417
X00068
X00062Y00407
X00036
X00044Y00417
X00022Y00416
X000236Y0039287
X000486
X00039Y00378
X00052Y0037
X00044Y00349
X00055999Y00342999
X00075Y00337
X00071Y00312
X00044Y00306
X00032
X000361Y0031787
X000111
X00007Y00303
Y00353
Y00378
X00008Y00403
X00109Y00407
X00118Y00417
X00131Y00407
X00143Y00417
X00156Y00407
X00168Y00417
X00172Y00386
X0011Y00367
X00103Y00301
T02
X00401Y001485
Y001739
Y001993
Y002247
Y002501
Y002755
M30
